# xmcd CD database file
#
# Track frame offsets:
#	183
#	16073
#	30853
#	49248
#	70448
#	90108
#	103725
#	115998
#	128548
#	142583
#	158808
#	176768
#	197053
#	209910
#	227450
#	245255
#
# Disc length: 3438 seconds
#
# Revision: 1
# Processed by: cddbd v1.5.2PL0 Copyright (c) Steve Scherf et al.
# Submitted via: CDex 1.70beta2
#
DISCID=c90d6c10
DTITLE=Happy Dixieland - Happy Dixieland
DYEAR=1987
DGENRE=Jazz
TTITLE0=Tiger Rag
TTITLE1=Honeysuckle Rose
TTITLE2=Do You Know What It Means To Miss New Orleans
TTITLE3=Struttin' With Some Barbecue
TTITLE4=Some Of These Days
TTITLE5=St. Louis Blues
TTITLE6=When The Saints
TTITLE7=The House Of The Rising Sun
TTITLE8=At The Jazzband Ball
TTITLE9=Shine
TTITLE10=Muscrat Ramble
TTITLE11=Baby Get Lost
TTITLE12=St. James Infirmary
TTITLE13=Please Don't Talk About Me When I'm Gone
TTITLE14=Mood Indigo
TTITLE15=Ice Cream
EXTD=YEAR: 1987
EXTT0=
EXTT1=
EXTT2=
EXTT3=
EXTT4=
EXTT5=
EXTT6=
EXTT7=
EXTT8=
EXTT9=
EXTT10=
EXTT11=
EXTT12=
EXTT13=
EXTT14=
EXTT15=
PLAYORDER=
